<svg width="25" height="26" viewBox="0 0 25 26" fill="none" xmlns="http://www.w3.org/2000/svg">
<path d="M9.375 6.78027V19.2803L18.75 13.0303L9.375 6.78027Z" fill="#DC0C1C"/>
<path d="M12.5 2.09277C18.5938 2.09277 23.4375 6.93652 23.4375 13.0303C23.4375 19.124 18.5938 23.9678 12.5 23.9678C6.40625 23.9678 1.5625 19.124 1.5625 13.0303C1.5625 6.93652 6.40625 2.09277 12.5 2.09277ZM12.5 0.530273C5.625 0.530273 0 6.15527 0 13.0303C0 19.9053 5.625 25.5303 12.5 25.5303C19.375 25.5303 25 19.9053 25 13.0303C25 6.15527 19.375 0.530273 12.5 0.530273Z" fill="#DC0C1C"/>
</svg>
